<svg width="27" height="26" viewBox="0 0 27 26" fill="none" xmlns="http://www.w3.org/2000/svg">
<path d="M13.7177 0C10.6413 0.000131242 7.66529 1.12644 5.3222 3.17738C2.97912 5.22833 1.42186 8.07008 0.929058 11.1942C0.436256 14.3183 1.04007 17.5208 2.63246 20.2288C4.22486 22.9368 6.70191 24.9735 9.62041 25.9745C10.2682 26.0911 10.5111 25.6913 10.5111 25.3414C10.5111 25.0248 10.4949 23.9752 10.4949 22.8589C7.23973 23.4753 6.39759 22.0425 6.13847 21.2928C5.85095 20.5636 5.39516 19.9174 4.81049 19.4101C4.35703 19.1601 3.70923 18.5437 4.79428 18.5271C5.2086 18.5733 5.60597 18.7216 5.95273 18.9594C6.29948 19.1973 6.58541 19.5176 6.78627 19.8932C6.96347 20.2207 7.20174 20.509 7.48743 20.7416C7.77313 20.9742 8.10062 21.1465 8.45115 21.2486C8.80169 21.3508 9.16837 21.3808 9.53019 21.3369C9.892 21.293 10.2418 21.1761 10.5597 20.9928C10.6158 20.3152 10.9093 19.6817 11.3856 19.2102C8.50294 18.877 5.49068 17.7273 5.49068 12.6291C5.47247 11.3044 5.94761 10.0227 6.81866 9.04696C6.42258 7.89565 6.46892 6.63216 6.94822 5.51483C6.94822 5.51483 8.03324 5.16494 10.5111 6.88103C12.6311 6.2812 14.8691 6.2812 16.9891 6.88103C19.4669 5.14829 20.552 5.51483 20.552 5.51483C21.0313 6.63215 21.0777 7.89566 20.6815 9.04696C21.5552 10.0211 22.0308 11.3038 22.0095 12.6291C22.0095 17.744 18.981 18.877 16.0984 19.2102C16.4076 19.5326 16.6457 19.9197 16.7966 20.3451C16.9475 20.7706 17.0076 21.2245 16.9729 21.676C16.9729 23.4588 16.9567 24.8915 16.9567 25.3414C16.9567 25.6913 17.1996 26.1078 17.8474 25.9745C20.7608 24.9654 23.2307 22.9239 24.8163 20.2145C26.4019 17.5052 27 14.3042 26.5038 11.1832C26.0076 8.06212 24.4493 5.22405 22.1073 3.1756C19.7652 1.12715 16.7918 0.00164598 13.7177 0Z" fill="white"/>
</svg>
