<svg width="23" height="23" viewBox="0 0 23 23" fill="none" xmlns="http://www.w3.org/2000/svg">
<path d="M20.8146 0.000160803H2.00571C1.79428 -0.00288047 1.58435 0.0372449 1.38789 0.118246C1.19143 0.199246 1.01231 0.319535 0.860743 0.472243C0.709177 0.624951 0.58814 0.807086 0.504545 1.00825C0.420949 1.20941 0.376431 1.42566 0.373535 1.64464V21.3554C0.376431 21.5743 0.420949 21.7906 0.504545 21.9918C0.58814 22.1929 0.709177 22.375 0.860743 22.5278C1.01231 22.6805 1.19143 22.8008 1.38789 22.8818C1.58435 22.9628 1.79428 23.0029 2.00571 22.9998H20.8146C21.026 23.0029 21.236 22.9628 21.4324 22.8818C21.6289 22.8008 21.808 22.6805 21.9596 22.5278C22.1112 22.375 22.2322 22.1929 22.3158 21.9918C22.3994 21.7906 22.4439 21.5743 22.4468 21.3554V1.64464C22.4439 1.42566 22.3994 1.20941 22.3158 1.00825C22.2322 0.807086 22.1112 0.624951 21.9596 0.472243C21.808 0.319535 21.6289 0.199246 21.4324 0.118246C21.236 0.0372449 21.026 -0.00288047 20.8146 0.000160803ZM7.06879 19.2509H3.73782V8.90104H7.06879V19.2509ZM5.40331 7.45206C5.17584 7.45206 4.95061 7.40565 4.74046 7.3155C4.53031 7.22534 4.33936 7.0932 4.17852 6.92661C4.01768 6.76003 3.8901 6.56226 3.80305 6.34461C3.716 6.12695 3.6712 5.89367 3.6712 5.65808C3.6712 5.42249 3.716 5.18921 3.80305 4.97156C3.8901 4.7539 4.01768 4.55614 4.17852 4.38955C4.33936 4.22296 4.53031 4.09082 4.74046 4.00066C4.95061 3.91051 5.17584 3.86411 5.40331 3.86411C5.64724 3.83545 5.89427 3.86049 6.12821 3.93757C6.36215 4.01465 6.57774 4.14205 6.76085 4.31141C6.94397 4.48077 7.09047 4.68828 7.19079 4.92035C7.2911 5.15242 7.34295 5.40382 7.34295 5.65808C7.34295 5.91235 7.2911 6.16375 7.19079 6.39582C7.09047 6.62789 6.94397 6.8354 6.76085 7.00476C6.57774 7.17412 6.36215 7.30151 6.12821 7.37859C5.89427 7.45567 5.64724 7.48071 5.40331 7.45206ZM19.0825 19.2509H15.7515V13.6965C15.7515 12.305 15.2741 11.3965 14.0638 11.3965C13.6893 11.3993 13.3246 11.521 13.0188 11.7451C12.7131 11.9693 12.4811 12.2851 12.3539 12.65C12.2671 12.9203 12.2294 13.2049 12.2429 13.4895V19.2394H8.91193C8.91193 19.2394 8.91193 9.83252 8.91193 8.88954H12.2429V10.35C12.5455 9.8062 12.9856 9.35818 13.5158 9.05422C14.046 8.75026 14.6463 8.60187 15.2519 8.62504C17.4725 8.62504 19.0825 10.1085 19.0825 13.294V19.2509Z" fill="#E6E6E6"/>
</svg>
